<?xml version="1.0" standalone="no"?>
<!DOCTYPE svg PUBLIC "-//W3C//DTD SVG 20010904//EN"
 "http://www.w3.org/TR/2001/REC-SVG-20010904/DTD/svg10.dtd">
<svg version="1.0" xmlns="http://www.w3.org/2000/svg"
 width="900.000000pt" height="900.000000pt" viewBox="0 0 900.000000 900.000000"
 preserveAspectRatio="xMidYMid meet">
<metadata>
Created by potrace 1.14, written by Peter Selinger 2001-2017
</metadata>
<g transform="translate(0.000000,900.000000) scale(0.100000,-0.100000)"
fill="#000000" stroke="none">
<path d="M3756 6362 c-2 -1 -54 -5 -117 -8 -116 -5 -180 -10 -234 -20 -16 -3
-45 -7 -62 -9 -18 -2 -43 -10 -55 -16 -13 -7 -23 -10 -23 -8 -1 9 -94 -38
-159 -80 -186 -121 -308 -320 -331 -539 -3 -31 -8 -70 -11 -85 -11 -55 -4
-2010 7 -2024 1 -2 2 -11 3 -20 27 -257 182 -480 415 -598 55 -27 228 -75 272
-75 13 0 60 -2 104 -6 104 -8 1754 -8 1865 0 246 17 392 67 531 183 130 109
212 246 251 418 l23 100 0 1035 c0 866 -2 1046 -15 1105 -7 39 -13 75 -12 82
2 6 -2 14 -8 18 -5 3 -10 14 -10 24 0 24 -73 171 -99 198 -12 12 -21 25 -21
29 0 13 -123 124 -175 159 -58 38 -146 79 -197 91 -5 1 -9 3 -10 4 -2 1 -16 3
-33 5 -16 1 -30 3 -30 5 0 3 -49 9 -140 15 -49 3 -110 8 -134 11 -43 6 -1590
11 -1595 6z"/>
</g>
</svg>
